<?xml version="1.0" encoding="UTF-8"?>
<svg xmlns="http://www.w3.org/2000/svg" viewBox="0 0 300 300">
  <path fill="#004AA1" d="M150,0 C232.843,0 300,67.157 300,150 C300,232.843 232.843,300 150,300 C67.157,300 0,232.843 0,150 C0,67.157 67.157,0 150,0 Z"/>
  <path fill="#FFF" d="M150,30 C216.274,30 270,83.726 270,150 C270,216.274 216.274,270 150,270 C83.726,270 30,216.274 30,150 C30,83.726 83.726,30 150,30 Z"/>
  <path fill="#004AA1" d="M150,60 C199.706,60 240,100.294 240,150 C240,199.706 199.706,240 150,240 C100.294,240 60,199.706 60,150 C60,100.294 100.294,60 150,60 Z"/>
  <g fill="#FFD600">
    <circle cx="150" cy="150" r="12"/>
    <circle cx="150" cy="90" r="12"/>
    <circle cx="203.301" cy="120" r="12"/>
    <circle cx="203.301" cy="180" r="12"/>
    <circle cx="150" cy="210" r="12"/>
    <circle cx="96.699" cy="180" r="12"/>
    <circle cx="96.699" cy="120" r="12"/>
    <circle cx="150" cy="150" r="12"/>
    <circle cx="180" cy="150" r="12"/>
    <circle cx="120" cy="150" r="12"/>
  </g>
</svg>
